<svg id="Ebene_1" data-name="Ebene 1" xmlns="http://www.w3.org/2000/svg" xmlns:xlink="http://www.w3.org/1999/xlink" viewBox="0 0 655 164.5"><defs><style>.cls-1{fill:none;}.cls-2{clip-path:url(#clip-path);}.cls-3{fill:#777;}.cls-4{fill:#751813;fill-rule:evenodd;}</style><clipPath id="clip-path"><rect class="cls-1" x="-27.5" y="-23.5" width="732.2" height="198.48"/></clipPath></defs><title>Zeichenfläche 1</title><g class="cls-2"><path class="cls-3" d="M80,116.92q-19.59,0-32.51-11.32-15.32-13.36-15.31-35t15.31-35Q60.38,24.21,79.77,24.22q19.59.2,32.62,11.32,15.31,13,15.31,35.61a46.65,46.65,0,0,1-3.58,18c-.43,1-.91,2-1.4,3L144,112c1.18-1.55,2.31-3.16,3.37-4.84A65.48,65.48,0,0,0,157.9,71.4q0-31.26-22-51Q115.16,1.57,79.68,1.56q-47.32.59-67.3,32.33A67.52,67.52,0,0,0,2,70.52,68.26,68.26,0,0,0,7,96.6a65.62,65.62,0,0,0,16.89,24.13q20.78,18.84,56,18.85a113.73,113.73,0,0,0,18.07-1.37l-9.08-21.94A59.3,59.3,0,0,1,80,116.92Z"/></g><g class="cls-2"><path class="cls-3" d="M260.62,34v46.7q0,13.25-5,19.85-8.94,11.84-36.94,11.84-20.25,0-31-6.41A19.66,19.66,0,0,1,179,95.82a43.57,43.57,0,0,1-2.36-15.14V34a4.17,4.17,0,0,0-.87-2.87,6.41,6.41,0,0,0-3.1-1.59v-2h26.45v2a5.87,5.87,0,0,0-3.09,1.56,4.25,4.25,0,0,0-.89,2.9V75.55A50.87,50.87,0,0,0,196,86.21,12.13,12.13,0,0,0,199,92q6,6.22,20.37,6.23T239.82,92a12.4,12.4,0,0,0,3-5.77,51.73,51.73,0,0,0,.8-10.66V34a4.17,4.17,0,0,0-.87-2.87,6.41,6.41,0,0,0-3.1-1.59v-2h25v2a6.36,6.36,0,0,0-3.1,1.59A4.17,4.17,0,0,0,260.62,34Z"/><path class="cls-3" d="M334.61,89.66H296.1l-5.71,11.72a9.61,9.61,0,0,0-1.18,3.85q0,2.68,4.15,3.72v2h-28v-2a7.59,7.59,0,0,0,3.79-1.71,16.7,16.7,0,0,0,3-4.76l31.17-64.05a12.06,12.06,0,0,0,1.49-4.88c0-1.87-1.21-3.22-3.61-4v-2h30.06v2q-3.68,1-3.67,3.6a9,9,0,0,0,1.18,4L361,101.38a21.73,21.73,0,0,0,3.6,5.59,8,8,0,0,0,4.16,2v2h-31.2v-2q4.11-.67,4.11-3.78a9.61,9.61,0,0,0-1.24-3.79Zm-5.32-11.42L315.55,48.55l-14,29.69Z"/><path class="cls-3" d="M396.9,53.82v50.67a4.17,4.17,0,0,0,.87,2.87,6.36,6.36,0,0,0,3.1,1.59v2H376v-2a6.45,6.45,0,0,0,3.11-1.59,4.17,4.17,0,0,0,.87-2.87V33.91a4.07,4.07,0,0,0-.87-2.8A6.45,6.45,0,0,0,376,29.52v-2h28.81v2c-1.78.45-2.67,1.38-2.67,2.81a4.94,4.94,0,0,0,1.74,3.23L450.6,83.37V33.91a4.07,4.07,0,0,0-.87-2.8,6.41,6.41,0,0,0-3.1-1.59v-2h24.9v2a6.45,6.45,0,0,0-3.11,1.59,4.07,4.07,0,0,0-.87,2.8v70.58a4.17,4.17,0,0,0,.87,2.87,6.45,6.45,0,0,0,3.11,1.59v2h-26.7v-2c1.74-.37,2.61-1.24,2.61-2.62,0-.82-1-2.24-3.05-4.28Z"/><path class="cls-3" d="M531.32,41.3v63.19a4.17,4.17,0,0,0,.87,2.87,6.41,6.41,0,0,0,3.1,1.59v2H508.84v-2a6.45,6.45,0,0,0,3.11-1.59,4.17,4.17,0,0,0,.87-2.87V41.3H486.49a4.29,4.29,0,0,0-2.85.84A6,6,0,0,0,482,45.21h-2V23.66h2a6.63,6.63,0,0,0,1.65,3.06,4.17,4.17,0,0,0,2.82.84h71.09a4.4,4.4,0,0,0,2.92-.84,6.2,6.2,0,0,0,1.62-3.06h2V45.21h-2a6.2,6.2,0,0,0-1.62-3.07,4.4,4.4,0,0,0-2.92-.84Z"/><path class="cls-3" d="M652.16,34.62,642,54.25l-1.74-1c0-.41.07-.73.07-1q0-2.07-3.6-4.46-11.06-7.56-26-7.57a38.52,38.52,0,0,0-11.61,1.59,13.85,13.85,0,0,0-5.93,3.66,7.66,7.66,0,0,0-2.27,5.3q0,4.71,5.78,6.41a91.8,91.8,0,0,0,12.79,1.83l9.75,1a81.92,81.92,0,0,1,14.06,2.51A33.05,33.05,0,0,1,642.91,67a21,21,0,0,1,6.68,7.87A23,23,0,0,1,652,85.28a23.51,23.51,0,0,1-5.78,15.62q-5.21,6.22-16.2,9.21a65.7,65.7,0,0,1-17.57,2.26,75.55,75.55,0,0,1-33.22-7.94,18.31,18.31,0,0,0-4.16-1.59,5.25,5.25,0,0,0-2.55,1.35l-1.8-.92L580,82.82l1.8.85v.8a6.7,6.7,0,0,0,2.67,5.07q4,3.54,12.48,6.1a55.18,55.18,0,0,0,16,2.57A32.92,32.92,0,0,0,627,95.46a13.53,13.53,0,0,0,5.15-4,8.62,8.62,0,0,0,1.93-5.27c0-2.76-1.52-4.73-4.54-5.91Q626.4,79,616.77,78l-9.56-1a133.41,133.41,0,0,1-13.6-1.86,34.94,34.94,0,0,1-7.94-2.85A20.44,20.44,0,0,1,576.79,64a21.86,21.86,0,0,1-2.92-11.36,22.89,22.89,0,0,1,7.39-17.48q9.68-9.11,29.06-9.1a66.56,66.56,0,0,1,15.14,1.63,115.46,115.46,0,0,1,17.51,6,19.39,19.39,0,0,0,4.41,1.41,5.13,5.13,0,0,0,3-1.41Z"/></g><g class="cls-2"><path class="cls-3" d="M204.42,125.19V126a4.64,4.64,0,0,0-2.27.94,8.48,8.48,0,0,0-2,3.08l-9.87,23.66h-.77l-10.59-24a14.35,14.35,0,0,0-1.15-2.26,3.77,3.77,0,0,0-1.28-1,6.11,6.11,0,0,0-2.06-.46v-.76H186V126a5.37,5.37,0,0,0-2.55.65,1.49,1.49,0,0,0-.58,1.21,9.11,9.11,0,0,0,1,3.2l7.19,16.31,6.68-16.1a10.86,10.86,0,0,0,1-3.3,1.56,1.56,0,0,0-.61-1.14,4,4,0,0,0-2-.77l-.36-.06v-.76Z"/><path class="cls-3" d="M204.79,141.29a9.56,9.56,0,0,0,2.06,6.56,6.35,6.35,0,0,0,4.91,2.38,5.36,5.36,0,0,0,3.26-1,7.5,7.5,0,0,0,2.33-3.47l.64.41a9.75,9.75,0,0,1-2.54,5.12,6.89,6.89,0,0,1-5.28,2.3,7.78,7.78,0,0,1-5.89-2.63,10,10,0,0,1-2.45-7.09c0-3.21.84-5.72,2.51-7.51a8.27,8.27,0,0,1,6.31-2.7,7.12,7.12,0,0,1,5.28,2.08,7.58,7.58,0,0,1,2.06,5.57Zm0-1.19h8.84a7.7,7.7,0,0,0-.44-2.54,4,4,0,0,0-1.55-1.81,4,4,0,0,0-2.16-.66,4.34,4.34,0,0,0-3.09,1.33A5.63,5.63,0,0,0,204.79,140.1Z"/><path class="cls-3" d="M226.12,133.66v4.22q2.4-4.22,4.93-4.22a2.68,2.68,0,0,1,1.89.69,2.05,2.05,0,0,1,.76,1.59,1.87,1.87,0,0,1-.55,1.35,1.73,1.73,0,0,1-1.29.55,2.74,2.74,0,0,1-1.64-.71,2.68,2.68,0,0,0-1.34-.7,1.25,1.25,0,0,0-.82.41,10,10,0,0,0-1.94,2.77v9a5.57,5.57,0,0,0,.4,2.36,2.15,2.15,0,0,0,1,.92,4.23,4.23,0,0,0,2,.37V153h-9.78v-.74a4.13,4.13,0,0,0,2.17-.45,1.75,1.75,0,0,0,.73-1.05,10.44,10.44,0,0,0,.1-2v-7.28a30.19,30.19,0,0,0-.13-3.9,1.58,1.58,0,0,0-.5-.92,1.45,1.45,0,0,0-.91-.28,4.27,4.27,0,0,0-1.46.3l-.21-.73,5.78-2.3Z"/><path class="cls-3" d="M240.47,137.66c1.39-1.37,2.22-2.16,2.47-2.36a7.48,7.48,0,0,1,2-1.21,5.72,5.72,0,0,1,2.15-.43,4.82,4.82,0,0,1,3.08,1,5,5,0,0,1,1.73,3,14.31,14.31,0,0,1,3.63-3.23,6.6,6.6,0,0,1,3.05-.77,4.87,4.87,0,0,1,2.7.77,5.15,5.15,0,0,1,1.87,2.51,11.34,11.34,0,0,1,.45,3.73v8.08a6.9,6.9,0,0,0,.28,2.42,1.68,1.68,0,0,0,.77.77,3.91,3.91,0,0,0,1.83.32V153h-9.42v-.74h.39a3.41,3.41,0,0,0,1.92-.47,1.84,1.84,0,0,0,.69-1,13.93,13.93,0,0,0,.08-2v-8.08a6.82,6.82,0,0,0-.56-3.24,2.84,2.84,0,0,0-2.61-1.31,5,5,0,0,0-2.22.54,12.59,12.59,0,0,0-2.7,2l0,.23,0,.88v9a7.43,7.43,0,0,0,.22,2.4,1.75,1.75,0,0,0,.82.79,4.84,4.84,0,0,0,2.07.32V153h-9.66v-.74a4.44,4.44,0,0,0,2.18-.37,1.88,1.88,0,0,0,.82-1.11,10.45,10.45,0,0,0,.11-2v-8.08a6,6,0,0,0-.69-3.3,3,3,0,0,0-2.56-1.31,4.75,4.75,0,0,0-2.24.59,8.67,8.67,0,0,0-2.67,2v10.07a6.65,6.65,0,0,0,.27,2.4,1.73,1.73,0,0,0,.77.83,4.92,4.92,0,0,0,2.07.28V153h-9.45v-.74A4.2,4.2,0,0,0,236,152a1.75,1.75,0,0,0,.79-.88,6.66,6.66,0,0,0,.27-2.35v-7.17a26.62,26.62,0,0,0-.18-4,1.62,1.62,0,0,0-.46-.94,1.33,1.33,0,0,0-.86-.25,4.2,4.2,0,0,0-1.4.3l-.31-.73,5.76-2.3h.89Z"/><path class="cls-3" d="M277.37,133.66a8.51,8.51,0,0,1,7,3.24,9.83,9.83,0,0,1,2.23,6.36,11.78,11.78,0,0,1-1.23,5.1,8.9,8.9,0,0,1-3.38,3.9,9.14,9.14,0,0,1-4.81,1.31,8.14,8.14,0,0,1-6.86-3.38,10.32,10.32,0,0,1-2.15-6.4,11.23,11.23,0,0,1,1.3-5.14,8.78,8.78,0,0,1,3.43-3.77A9,9,0,0,1,277.37,133.66Zm-3.71-8.06a2.2,2.2,0,0,1,1.61.66,2.12,2.12,0,0,1,.66,1.57,2.08,2.08,0,0,1-.67,1.57,2.19,2.19,0,0,1-1.58.65,2.24,2.24,0,0,1-1.61-.65,2.19,2.19,0,0,1,0-3.14A2.17,2.17,0,0,1,273.66,125.6Zm3.06,9.39a4.39,4.39,0,0,0-2.22.65,4.54,4.54,0,0,0-1.8,2.26,10.74,10.74,0,0,0-.69,4.17,14.24,14.24,0,0,0,1.66,7.07c1.1,2,2.56,3,4.37,3a4.1,4.1,0,0,0,3.33-1.64q1.32-1.65,1.32-5.64c0-3.34-.73-6-2.19-7.88A4.55,4.55,0,0,0,276.72,135Zm4.3-9.39a2.15,2.15,0,0,1,1.59.66,2.2,2.2,0,0,1,0,3.14,2.18,2.18,0,0,1-1.59.65,2.24,2.24,0,0,1-1.61-.65,2.17,2.17,0,0,1,0-3.14A2.21,2.21,0,0,1,281,125.6Z"/><path class="cls-3" d="M294.49,146.15a6.32,6.32,0,0,1-2.69-2.35,6.16,6.16,0,0,1-.94-3.33,6.35,6.35,0,0,1,2.14-4.8,7.66,7.66,0,0,1,5.47-2,8.51,8.51,0,0,1,4.74,1.31h4a6,6,0,0,1,1.05.05.39.39,0,0,1,.2.18,1.15,1.15,0,0,1,.13.65,1.79,1.79,0,0,1-.1.74.56.56,0,0,1-.22.17,4.91,4.91,0,0,1-1.06.06h-2.48a6.25,6.25,0,0,1-.87,8.26,7.81,7.81,0,0,1-5.49,1.87,11,11,0,0,1-2.9-.41,5.55,5.55,0,0,0-1.24,1.36,2.21,2.21,0,0,0-.32,1,.93.93,0,0,0,.34.67,2.5,2.5,0,0,0,1.35.47c.39.06,1.36.11,2.92.15,2.86.07,4.72.16,5.57.29a5.18,5.18,0,0,1,3.09,1.41,3.85,3.85,0,0,1,1.16,2.83,5.91,5.91,0,0,1-2.21,4.35,12.07,12.07,0,0,1-8.49,3,12.32,12.32,0,0,1-6.8-1.78q-1.56-1-1.56-2.13a2.24,2.24,0,0,1,.23-1,11.11,11.11,0,0,1,1.46-2.11c.09-.12.8-.86,2.12-2.22a6.68,6.68,0,0,1-1.53-1.13,1.68,1.68,0,0,1-.45-1.14,3.3,3.3,0,0,1,.6-1.68A13.09,13.09,0,0,1,294.49,146.15Zm-.21,6.85A9.94,9.94,0,0,0,292.8,155a3.49,3.49,0,0,0-.5,1.66,2.07,2.07,0,0,0,1.21,1.72,11.67,11.67,0,0,0,6,1.27c2.5,0,4.35-.43,5.53-1.3a3.59,3.59,0,0,0,1.79-2.78,1.56,1.56,0,0,0-1.07-1.52,14,14,0,0,0-4.29-.53A70,70,0,0,1,294.28,153Zm3.84-18.36a3.31,3.31,0,0,0-2.59,1.21,5.64,5.64,0,0,0-1,3.72,7.85,7.85,0,0,0,1.42,5,3.38,3.38,0,0,0,2.75,1.35,3.31,3.31,0,0,0,2.61-1.17,5.47,5.47,0,0,0,1-3.67,8.1,8.1,0,0,0-1.44-5.1A3.31,3.31,0,0,0,298.12,134.64Z"/><path class="cls-3" d="M314,141.29a9.51,9.51,0,0,0,2.06,6.56,6.33,6.33,0,0,0,4.9,2.38,5.37,5.37,0,0,0,3.27-1,7.42,7.42,0,0,0,2.32-3.47l.65.41a9.75,9.75,0,0,1-2.54,5.12,6.89,6.89,0,0,1-5.28,2.3,7.78,7.78,0,0,1-5.89-2.63,10,10,0,0,1-2.45-7.09c0-3.21.83-5.72,2.51-7.51a8.27,8.27,0,0,1,6.31-2.7,7.08,7.08,0,0,1,5.27,2.08,7.55,7.55,0,0,1,2.07,5.57Zm0-1.19h8.84a7.7,7.7,0,0,0-.44-2.54,4,4,0,0,0-1.55-1.81,4,4,0,0,0-2.16-.66,4.37,4.37,0,0,0-3.1,1.33A5.68,5.68,0,0,0,314,140.1Z"/><path class="cls-3" d="M335.26,137.64c2.24-2.65,4.37-4,6.41-4a4.7,4.7,0,0,1,2.69.77,5.19,5.19,0,0,1,1.79,2.53,11.41,11.41,0,0,1,.46,3.77v8a6.76,6.76,0,0,0,.29,2.42,1.69,1.69,0,0,0,.74.8,4.27,4.27,0,0,0,1.89.29V153h-9.45v-.74h.4a3.16,3.16,0,0,0,1.86-.4,2.08,2.08,0,0,0,.74-1.18,10.93,10.93,0,0,0,.09-1.93v-7.69a7.7,7.7,0,0,0-.68-3.72,2.43,2.43,0,0,0-2.28-1.16q-2.49,0-4.95,2.67v9.9a7.06,7.06,0,0,0,.23,2.36,1.89,1.89,0,0,0,.8.87,5,5,0,0,0,2.08.28V153h-9.45v-.74h.42a2.25,2.25,0,0,0,2-.73,5.23,5.23,0,0,0,.51-2.78v-7a31,31,0,0,0-.15-4.12,1.86,1.86,0,0,0-.48-1,1.39,1.39,0,0,0-.87-.26,4.15,4.15,0,0,0-1.4.3l-.31-.73,5.76-2.3h.89Z"/><path class="cls-3" d="M363.4,133.66v6.4h-.69a8.23,8.23,0,0,0-2-4.1,4.58,4.58,0,0,0-3.16-1.09,3.5,3.5,0,0,0-2.35.76,2.17,2.17,0,0,0-.9,1.68,3,3,0,0,0,.67,2,7.46,7.46,0,0,0,2.63,1.78l3,1.46c2.82,1.35,4.23,3.14,4.23,5.35a5,5,0,0,1-2,4.13,6.87,6.87,0,0,1-4.41,1.57,15.4,15.4,0,0,1-4-.61,4,4,0,0,0-1.13-.21.83.83,0,0,0-.75.54h-.69v-6.71h.69a7.66,7.66,0,0,0,2.23,4.33,5.44,5.44,0,0,0,3.7,1.45,3.3,3.3,0,0,0,2.34-.83,2.6,2.6,0,0,0,.91-2,3.19,3.19,0,0,0-1-2.38,18.12,18.12,0,0,0-4-2.44,11.93,11.93,0,0,1-4-2.66,4.56,4.56,0,0,1-.94-3,5.16,5.16,0,0,1,1.62-3.87,5.75,5.75,0,0,1,4.18-1.56,10.13,10.13,0,0,1,2.73.47,6.28,6.28,0,0,0,1.42.31.82.82,0,0,0,.52-.15,2,2,0,0,0,.44-.63Z"/><path class="cls-3" d="M373.34,137.66c1.39-1.37,2.21-2.16,2.47-2.36a7.48,7.48,0,0,1,2-1.21,5.72,5.72,0,0,1,2.15-.43,4.82,4.82,0,0,1,3.08,1,5.09,5.09,0,0,1,1.73,3,14.31,14.31,0,0,1,3.63-3.23,6.57,6.57,0,0,1,3.05-.77,4.87,4.87,0,0,1,2.7.77,5.15,5.15,0,0,1,1.87,2.51,11.34,11.34,0,0,1,.45,3.73v8.08a7.22,7.22,0,0,0,.27,2.42,1.76,1.76,0,0,0,.78.77,3.91,3.91,0,0,0,1.83.32V153H390v-.74h.39a3.41,3.41,0,0,0,1.92-.47,1.84,1.84,0,0,0,.69-1,13.93,13.93,0,0,0,.08-2v-8.08a6.82,6.82,0,0,0-.56-3.24,2.84,2.84,0,0,0-2.61-1.31,5,5,0,0,0-2.22.54,12.59,12.59,0,0,0-2.7,2l0,.23,0,.88v9a7.43,7.43,0,0,0,.22,2.4,1.7,1.7,0,0,0,.82.79,4.84,4.84,0,0,0,2.07.32V153h-9.66v-.74a4.44,4.44,0,0,0,2.18-.37,1.88,1.88,0,0,0,.82-1.11,10.45,10.45,0,0,0,.11-2v-8.08a6,6,0,0,0-.69-3.3,3,3,0,0,0-2.56-1.31,4.75,4.75,0,0,0-2.24.59,8.67,8.67,0,0,0-2.67,2v10.07a6.65,6.65,0,0,0,.27,2.4,1.73,1.73,0,0,0,.77.83,4.92,4.92,0,0,0,2.07.28V153H367v-.74a4.2,4.2,0,0,0,1.84-.28,1.75,1.75,0,0,0,.79-.88,6.66,6.66,0,0,0,.27-2.35v-7.17a26.62,26.62,0,0,0-.18-4,1.68,1.68,0,0,0-.46-.94,1.33,1.33,0,0,0-.86-.25,4.2,4.2,0,0,0-1.4.3l-.31-.73,5.76-2.3h.89Z"/><path class="cls-3" d="M411.72,150.29a33.07,33.07,0,0,1-3.69,2.59,5.74,5.74,0,0,1-2.4.51,4.36,4.36,0,0,1-3.27-1.34,4.83,4.83,0,0,1-1.28-3.5,4.38,4.38,0,0,1,.63-2.38,8.24,8.24,0,0,1,3-2.63,47.25,47.25,0,0,1,7-3v-.74c0-1.87-.3-3.16-.91-3.85a3.29,3.29,0,0,0-2.64-1.05,3,3,0,0,0-2.08.7,2.08,2.08,0,0,0-.8,1.6l0,1.19a2,2,0,0,1-.49,1.45,1.72,1.72,0,0,1-1.29.52,1.63,1.63,0,0,1-1.26-.54,2.08,2.08,0,0,1-.49-1.45,4.15,4.15,0,0,1,1.84-3.24,8,8,0,0,1,5.15-1.48,9.07,9.07,0,0,1,4.17.84,3.88,3.88,0,0,1,1.81,2,11,11,0,0,1,.38,3.61v6.38a29,29,0,0,0,.1,3.29,1.39,1.39,0,0,0,.35.81.85.85,0,0,0,.55.2,1.09,1.09,0,0,0,.58-.14,12.45,12.45,0,0,0,1.69-1.5v1.15q-2.32,3.08-4.46,3.08a2.08,2.08,0,0,1-1.63-.7A3.71,3.71,0,0,1,411.72,150.29Zm0-1.33V141.8a42.11,42.11,0,0,0-4.07,1.74,7.14,7.14,0,0,0-2.36,1.89,3.61,3.61,0,0,0-.7,2.15,3.48,3.48,0,0,0,.89,2.46,2.78,2.78,0,0,0,2.07,1Q409.13,151,411.72,149Z"/><path class="cls-3" d="M425.42,137.64q3.36-4,6.4-4a4.66,4.66,0,0,1,2.69.77,5.2,5.2,0,0,1,1.8,2.53,11.74,11.74,0,0,1,.45,3.77v8a6.47,6.47,0,0,0,.3,2.42,1.69,1.69,0,0,0,.74.8,4.25,4.25,0,0,0,1.88.29V153h-9.44v-.74h.39a3.2,3.2,0,0,0,1.87-.4,2.13,2.13,0,0,0,.74-1.18,11.43,11.43,0,0,0,.08-1.93v-7.69a7.71,7.71,0,0,0-.67-3.72,2.46,2.46,0,0,0-2.29-1.16q-2.48,0-4.94,2.67v9.9a7.06,7.06,0,0,0,.23,2.36,1.84,1.84,0,0,0,.8.87,4.94,4.94,0,0,0,2.08.28V153h-9.45v-.74h.42a2.25,2.25,0,0,0,2-.73,5.23,5.23,0,0,0,.51-2.78v-7a28.5,28.5,0,0,0-.16-4.12,1.73,1.73,0,0,0-.48-1,1.34,1.34,0,0,0-.86-.26,4.15,4.15,0,0,0-1.4.3l-.31-.73,5.75-2.3h.9Z"/><path class="cls-3" d="M452,150.29a33.07,33.07,0,0,1-3.69,2.59,5.74,5.74,0,0,1-2.4.51,4.32,4.32,0,0,1-3.26-1.34,4.79,4.79,0,0,1-1.28-3.5,4.38,4.38,0,0,1,.62-2.38,8.24,8.24,0,0,1,3-2.63,47.25,47.25,0,0,1,7-3v-.74c0-1.87-.3-3.16-.91-3.85a3.28,3.28,0,0,0-2.63-1.05,3,3,0,0,0-2.09.7,2.07,2.07,0,0,0-.79,1.6l0,1.19a2,2,0,0,1-.49,1.45,1.7,1.7,0,0,1-1.28.52,1.61,1.61,0,0,1-1.26-.54,2,2,0,0,1-.5-1.45,4.18,4.18,0,0,1,1.84-3.24,8,8,0,0,1,5.15-1.48,9,9,0,0,1,4.17.84,3.9,3.9,0,0,1,1.82,2,11.09,11.09,0,0,1,.37,3.61v6.38a28,28,0,0,0,.11,3.29,1.39,1.39,0,0,0,.34.81.87.87,0,0,0,.55.2,1.12,1.12,0,0,0,.59-.14,13.86,13.86,0,0,0,1.69-1.5v1.15q-2.34,3.08-4.47,3.08a2,2,0,0,1-1.62-.7A3.71,3.71,0,0,1,452,150.29Zm0-1.33V141.8a43.33,43.33,0,0,0-4.07,1.74,7.08,7.08,0,0,0-2.35,1.89,3.62,3.62,0,0,0-.71,2.15,3.49,3.49,0,0,0,.9,2.46,2.74,2.74,0,0,0,2.06,1Q449.45,151,452,149Z"/><path class="cls-3" d="M465.28,146.15a6.35,6.35,0,0,1-2.7-2.35,6.24,6.24,0,0,1-.93-3.33,6.37,6.37,0,0,1,2.13-4.8,7.68,7.68,0,0,1,5.48-2A8.46,8.46,0,0,1,474,135H478a5.85,5.85,0,0,1,1,.05.38.38,0,0,1,.21.18,1.24,1.24,0,0,1,.13.65,1.75,1.75,0,0,1-.11.74.44.44,0,0,1-.22.17,4.73,4.73,0,0,1-1,.06h-2.48a6.26,6.26,0,0,1-.88,8.26A7.79,7.79,0,0,1,469.2,147a10.91,10.91,0,0,1-2.9-.41,5.35,5.35,0,0,0-1.24,1.36,2.12,2.12,0,0,0-.33,1,.94.94,0,0,0,.35.67,2.46,2.46,0,0,0,1.34.47c.39.06,1.37.11,2.92.15,2.87.07,4.72.16,5.57.29a5.21,5.21,0,0,1,3.1,1.41,3.85,3.85,0,0,1,1.16,2.83,5.89,5.89,0,0,1-2.22,4.35,12,12,0,0,1-8.48,3,12.3,12.3,0,0,1-6.8-1.78c-1.05-.69-1.57-1.4-1.57-2.13a2.38,2.38,0,0,1,.23-1,12.16,12.16,0,0,1,1.46-2.11q.15-.18,2.13-2.22a6.68,6.68,0,0,1-1.53-1.13,1.68,1.68,0,0,1-.45-1.14,3.37,3.37,0,0,1,.59-1.68A13.21,13.21,0,0,1,465.28,146.15Zm-.21,6.85a9.56,9.56,0,0,0-1.48,1.95,3.38,3.38,0,0,0-.5,1.66,2.08,2.08,0,0,0,1.2,1.72,11.69,11.69,0,0,0,6,1.27c2.51,0,4.35-.43,5.54-1.3a3.57,3.57,0,0,0,1.78-2.78,1.55,1.55,0,0,0-1.06-1.52,14.08,14.08,0,0,0-4.3-.53A69.78,69.78,0,0,1,465.07,153Zm3.83-18.36a3.29,3.29,0,0,0-2.58,1.21,5.58,5.58,0,0,0-1,3.72,7.91,7.91,0,0,0,1.41,5,3.39,3.39,0,0,0,2.76,1.35,3.3,3.3,0,0,0,2.6-1.17,5.47,5.47,0,0,0,1-3.67,8.1,8.1,0,0,0-1.44-5.1A3.31,3.31,0,0,0,468.9,134.64Z"/><path class="cls-3" d="M484.73,141.29a9.56,9.56,0,0,0,2.07,6.56,6.32,6.32,0,0,0,4.9,2.38,5.34,5.34,0,0,0,3.26-1,7.43,7.43,0,0,0,2.33-3.47l.64.41a9.75,9.75,0,0,1-2.54,5.12,6.86,6.86,0,0,1-5.28,2.3,7.79,7.79,0,0,1-5.89-2.63,10,10,0,0,1-2.45-7.09c0-3.21.84-5.72,2.51-7.51a8.27,8.27,0,0,1,6.31-2.7,7.12,7.12,0,0,1,5.28,2.08,7.54,7.54,0,0,1,2.06,5.57Zm0-1.19h8.85a8,8,0,0,0-.44-2.54,4.11,4.11,0,0,0-1.56-1.81,3.9,3.9,0,0,0-2.15-.66,4.35,4.35,0,0,0-3.1,1.33A5.73,5.73,0,0,0,484.73,140.1Z"/><path class="cls-3" d="M506.15,137.66c1.39-1.37,2.21-2.16,2.46-2.36a7.53,7.53,0,0,1,2-1.21,5.71,5.71,0,0,1,2.14-.43,4.83,4.83,0,0,1,3.09,1,5.09,5.09,0,0,1,1.73,3,14,14,0,0,1,3.63-3.23,6.57,6.57,0,0,1,3-.77,4.87,4.87,0,0,1,2.7.77,5.14,5.14,0,0,1,1.86,2.51,11,11,0,0,1,.46,3.73v8.08a7.22,7.22,0,0,0,.27,2.42,1.78,1.78,0,0,0,.77.77,4,4,0,0,0,1.84.32V153h-9.43v-.74h.4a3.41,3.41,0,0,0,1.92-.47,1.84,1.84,0,0,0,.69-1,13.93,13.93,0,0,0,.08-2v-8.08a6.82,6.82,0,0,0-.56-3.24,2.85,2.85,0,0,0-2.61-1.31,5,5,0,0,0-2.22.54,12.11,12.11,0,0,0-2.7,2l0,.23,0,.88v9a7.43,7.43,0,0,0,.22,2.4,1.7,1.7,0,0,0,.82.79,4.81,4.81,0,0,0,2.07.32V153H511.2v-.74a4.44,4.44,0,0,0,2.18-.37,1.92,1.92,0,0,0,.82-1.11,10.45,10.45,0,0,0,.11-2v-8.08a6,6,0,0,0-.69-3.3,3,3,0,0,0-2.57-1.31,4.74,4.74,0,0,0-2.23.59,8.67,8.67,0,0,0-2.67,2v10.07a7,7,0,0,0,.26,2.4,1.78,1.78,0,0,0,.77.83,5,5,0,0,0,2.08.28V153h-9.45v-.74a4.2,4.2,0,0,0,1.84-.28,1.8,1.8,0,0,0,.79-.88,6.66,6.66,0,0,0,.27-2.35v-7.17a24.82,24.82,0,0,0-.19-4,1.56,1.56,0,0,0-.46-.94,1.29,1.29,0,0,0-.85-.25,4.15,4.15,0,0,0-1.4.3l-.31-.73,5.75-2.3h.9Z"/><path class="cls-3" d="M536.91,141.29a9.56,9.56,0,0,0,2.07,6.56,6.32,6.32,0,0,0,4.9,2.38,5.34,5.34,0,0,0,3.26-1,7.43,7.43,0,0,0,2.33-3.47l.65.41a9.84,9.84,0,0,1-2.55,5.12,6.86,6.86,0,0,1-5.28,2.3,7.79,7.79,0,0,1-5.89-2.63,10,10,0,0,1-2.45-7.09c0-3.21.84-5.72,2.51-7.51a8.27,8.27,0,0,1,6.31-2.7,7.1,7.1,0,0,1,5.28,2.08,7.55,7.55,0,0,1,2.07,5.57Zm0-1.19h8.85a8,8,0,0,0-.44-2.54,4.11,4.11,0,0,0-1.56-1.81,3.9,3.9,0,0,0-2.15-.66,4.35,4.35,0,0,0-3.1,1.33A5.73,5.73,0,0,0,536.91,140.1Z"/><path class="cls-3" d="M558.23,137.64q3.36-4,6.4-4a4.68,4.68,0,0,1,2.69.77,5.13,5.13,0,0,1,1.79,2.53,11.41,11.41,0,0,1,.46,3.77v8a6.76,6.76,0,0,0,.29,2.42,1.71,1.71,0,0,0,.75.8,4.25,4.25,0,0,0,1.88.29V153H563v-.74h.4a3.22,3.22,0,0,0,1.87-.4,2.13,2.13,0,0,0,.74-1.18,12.75,12.75,0,0,0,.08-1.93v-7.69a7.58,7.58,0,0,0-.68-3.72,2.43,2.43,0,0,0-2.28-1.16q-2.48,0-4.94,2.67v9.9a6.79,6.79,0,0,0,.23,2.36,1.84,1.84,0,0,0,.8.87,4.92,4.92,0,0,0,2.07.28V153h-9.44v-.74h.41a2.27,2.27,0,0,0,2-.73,5.23,5.23,0,0,0,.51-2.78v-7a30.18,30.18,0,0,0-.16-4.12,1.73,1.73,0,0,0-.48-1,1.37,1.37,0,0,0-.87-.26,4.15,4.15,0,0,0-1.39.3l-.32-.73,5.76-2.3h.9Z"/><path class="cls-3" d="M579.56,128v6.17H584v1.44h-4.47v12.18a4.05,4.05,0,0,0,.53,2.46,1.73,1.73,0,0,0,1.37.64,2.45,2.45,0,0,0,1.34-.42,2.77,2.77,0,0,0,1-1.24h.81a6.46,6.46,0,0,1-2.07,3,4.45,4.45,0,0,1-2.75,1,3.71,3.71,0,0,1-1.87-.53,3.13,3.13,0,0,1-1.36-1.49,7.82,7.82,0,0,1-.44-3V135.65h-3V135a7.93,7.93,0,0,0,2.34-1.53,11.67,11.67,0,0,0,2.14-2.55,22.65,22.65,0,0,0,1.34-2.85Z"/></g><g class="cls-2"><path class="cls-3" d="M613.47,144.16H603.05l-1.82,4.17a6.6,6.6,0,0,0-.68,2.3,1.35,1.35,0,0,0,.59,1.07,5.24,5.24,0,0,0,2.53.59V153H595.2v-.72a4.59,4.59,0,0,0,2.18-.76,11.94,11.94,0,0,0,2.24-3.8L609.08,126h.7l9.37,22a9.77,9.77,0,0,0,2.05,3.44,4.16,4.16,0,0,0,2.57.89V153H613.15v-.72a4,4,0,0,0,2.18-.53,1.35,1.35,0,0,0,.56-1.09,8,8,0,0,0-.79-2.71Zm-.55-1.45L608.35,132l-4.68,10.69Z"/><path class="cls-3" d="M649.13,126l.69,8.35h-.69a11.46,11.46,0,0,0-2.72-4.7,8.6,8.6,0,0,0-6.17-2.28,8.82,8.82,0,0,0-7.82,4,14.15,14.15,0,0,0-2.24,8,15.71,15.71,0,0,0,1.49,6.9,10.36,10.36,0,0,0,3.89,4.58,9.47,9.47,0,0,0,5,1.45,10.93,10.93,0,0,0,2.88-.37,11.7,11.7,0,0,0,2.68-1.09v-7.65a6.77,6.77,0,0,0-.31-2.6,2,2,0,0,0-1-.94,5.51,5.51,0,0,0-2.27-.32v-.74H653v.74h-.5a2.23,2.23,0,0,0-2.12,1,6.64,6.64,0,0,0-.4,2.85v8.1a20.27,20.27,0,0,1-4.5,1.77,20,20,0,0,1-4.94.57q-7.8,0-11.85-4.92a13,13,0,0,1-3-8.51,14,14,0,0,1,1.71-6.69,14.4,14.4,0,0,1,5.56-5.85,15.12,15.12,0,0,1,9.65-1.46,24.24,24.24,0,0,1,3.4,1,5.71,5.71,0,0,0,1.49.41.77.77,0,0,0,.64-.34,2.59,2.59,0,0,0,.33-1.34Z"/></g><polyline class="cls-4" points="171.25 153 84.75 75.86 115.25 153"/></svg>